<svg xmlns="http://www.w3.org/2000/svg" viewBox="0 0 1280 320" width="1280" height="320" role="img" aria-labelledby="t d" xmlns:c2pa="http://c2pa.org/manifest"><metadata><c2pa:manifest>AAAWgmp1bWIAAAAeanVtZGMycGEAEQAQgAAAqgA4m3EDYzJwYQAAABZcanVtYgAAAEdqdW1kYzJtYQARABCAAACqADibcQN1cm46YzJwYToyZDFhOGVkYS1lODIyLTRlNGItYmY5MS03MDM1OTJiMWUyMjgAAAADl2p1bWIAAAApanVtZGMyYXMAEQAQgAAAqgA4m3EDYzJwYS5hc3NlcnRpb25zAAAAALxqdW1iAAAARGp1bWRjYm9yABEAEIAAAKoAOJtxE2MycGEuaW5ncmVkaWVudC52MwAAAAAYYzJzaAg34WnJx7Kno9r/SL4oaaAAAABwY2JvcqNpZGM6Zm9ybWF0bWltYWdlL3N2Zyt4bWxqaW5zdGFuY2VJRHgseG1wOmlpZDpkM2QyMTY0NC1kMzI4LTRiMGYtODY3Ny1jNjkyNjNkY2E3ZDNscmVsYXRpb25zaGlwaHBhcmVudE9mAAAB4mp1bWIAAABBanVtZGNib3IAEQAQgAAAqgA4m3ETYzJwYS5hY3Rpb25zLnYyAAAAABhjMnNoN37fSbSjoM7+kcwBapq+WAAAAZljYm9yomdhY3Rpb25zgqJmYWN0aW9ua2MycGEub3BlbmVkanBhcmFtZXRlcnOha2luZ3JlZGllbnRzgaJjdXJseC1zZWxmI2p1bWJmPWMycGEuYXNzZXJ0aW9ucy9jMnBhLmluZ3JlZGllbnQudjNkaGFzaFggxT4oGNomkNj9t0KPiWUcjcwN1hzaqMeres+FBBabNVGkZmFjdGlvbngdY29tLmFudGhyb3BpYy5jbGF1ZGUucHJvdmlkZWRqcGFyYW1ldGVyc6F4H2NvbS5hbnRocm9waWMub3JpZ2luLWNvbmZpZGVuY2VndW5rbm93bmtkZXNjcmlwdGlvbnhmQ2xhdWRlIHByb3ZpZGVkIHRoaXMgZmlsZSBhdCB0aGUgcmVxdWVzdCBvZiBhIHVzZXIgYW5kIG1heSBoYXZlIGNyZWF0ZWQgb3IgbW9kaWZpZWQgdGhlIGZpbGUgY29udGVudHMubXNvZnR3YXJlQWdlbnShZG5hbWVmQ2xhdWRlcmFsbEFjdGlvbnNJbmNsdWRlZPUAAADIanVtYgAAAEBqdW1kY2JvcgARABCAAACqADibcRNjMnBhLmhhc2guZGF0YQAAAAAYYzJzaOTBn67siJgqQkNMCjpS1w4AAACAY2JvcqVjYWxnZnNoYTI1NmNwYWRNAAAAAAAAAAAAAAAAAGRoYXNoWCBReMVPAMDU4FYT15ATyvvcTYa4mTTXO/TMUkjHZox/EmRuYW1lbmp1bWJmIG1hbmlmZXN0amV4Y2x1c2lvbnOBomVzdGFydBi5Zmxlbmd0aBkeBAAAAj5qdW1iAAAAJ2p1bWRjMmNsABEAEIAAAKoAOJtxA2MycGEuY2xhaW0udjIAAAACD2Nib3KlY2FsZ2ZzaGEyNTZpc2lnbmF0dXJleE1zZWxmI2p1bWJmPS9jMnBhL3VybjpjMnBhOjJkMWE4ZWRhLWU4MjItNGU0Yi1iZjkxLTcwMzU5MmIxZTIyOC9jMnBhLnNpZ25hdHVyZWppbnN0YW5jZUlEeCx4bXA6aWlkOjU2ZTM1NTY4LWE2MDQtNDRhYS05MDAwLWM2YTAyMjg1MTg1OXJjcmVhdGVkX2Fzc2VydGlvbnODomN1cmx4LXNlbGYjanVtYmY9YzJwYS5hc3NlcnRpb25zL2MycGEuaW5ncmVkaWVudC52M2RoYXNoWCDFPigY2iaQ2P23Qo+JZRyNzA3WHNqox6t6z4UEFps1UaJjdXJseCpzZWxmI2p1bWJmPWMycGEuYXNzZXJ0aW9ucy9jMnBhLmFjdGlvbnMudjJkaGFzaFggNaVZHF7dDRORxwga22cP+PLaJsR7FqfZ9Gy0XKcPTS2iY3VybHgpc2VsZiNqdW1iZj1jMnBhLmFzc2VydGlvbnMvYzJwYS5oYXNoLmRhdGFkaGFzaFggldB2h0jsCcIjRajVdGWCXb97Dtbzfvat7P+ByP1pAlx0Y2xhaW1fZ2VuZXJhdG9yX2luZm+jZG5hbWVvQW50aHJvcGljIEZpbGVzZ3ZlcnNpb25lMS4wLjBrc3BlY1ZlcnNpb25lMi40LjAAABA4anVtYgAAAChqdW1kYzJjcwARABCAAACqADibcQNjMnBhLnNpZ25hdHVyZQAAABAIY2JvctKEWQISogEmGCFZAgowggIGMIIBjaADAgECAhRA5aAK7sI50L64g/oGQgU9Z1UTADAKBggqhkjOPQQDAzBJMRcwFQYDVQQKEw5BbnRocm9waWMsIFBCQzEuMCwGA1UEAxMlQW50aHJvcGljIENvbnRlbnQgQ3JlZGVudGlhbHMgUm9vdCBDQTAeFw0yNjA4MDcxODQzNTZaFw0yODA4MDYxOTQzNTZaMEQxFzAVBgNVBAoTDkFudGhyb3BpYywgUEJDMSkwJwYDVQQDEyBBbnRocm9waWMgQ2xhdWRlIENvbnRlbnQgU2lnbmluZzBZMBMGByqGSM49AgEGCCqGSM49AwEHA0IABJh6CmvLUBgFFNU0vUKlOVtE6djd17L5SuwX0LemFisBM3dkd/3cyjxFA3Qo5S46fX0/ihY0VZ7mfb9KF703t5OjWDBWMA4GA1UdDwEB/wQEAwIHgDAVBgNVHSUEDjAMBgorBgEEAYPoXgIBMAwGA1UdEwEB/wQCMAAwHwYDVR0jBBgwFoAUzlHiBIFOZFsj+OPEz5o+nMHXXMIwCgYIKoZIzj0EAwMDZwAwZAIwMXMdFJ4BetLLVY7ORuE9noqbbAZOZn/aArXyTwFAZfKrPzxF2vPoJNf1+UCdg1XGAjBwX1zd9WGqYkqmL5SFqw1QySjr1zJfpJM9+1rdDwSPLMOPOjKuiXjoU/pUUeG9RwmhY3BhZFkNngAAAAAAAAAAAAAAAAAAAAAAAAAAAAAAAAAAAAAAAAAAAAAAAAAAAAAAAAAAAAAAAAAAAAAAAAAAAAAAAAAAAAAAAAAAAAAAAAAAAAAAAAAAAAAAAAAAAAAAAAAAAAAAAAAAAAAAAAAAAAAAAAAAAAAAAAAAAAAAAAAAAAAAAAAAAAAAAAAAAAAAAAAAAAAAAAAAAAAAAAAAAAAAAAAAAAAAAAAAAAAAAAAAAAAAAAAAAAAAAAAAAAAAAAAAAAAAAAAAAAAAAAAAAAAAAAAAAAAAAAAAAAAAAAAAAAAAAAAAAAAAAAAAAAAAAAAAAAAAAAAAAAAAAAAAAAAAAAAAAAAAAAAAAAAAAAAAAAAAAAAAAAAAAAAAAAAAAAAAAAAAAAAAAAAAAAAAAAAAAAAAAAAAAAAAAAAAAAAAAAAAAAAAAAAAAAAAAAAAAAAAAAAAAAAAAAAAAAAAAAAAAAAAAAAAAAAAAAAAAAAAAAAAAAAAAAAAAAAAAAAAAAAAAAAAAAAAAAAAAAAAAAAAAAAAAAAAAAAAAAAAAAAAAAAAAAAAAAAAAAAAAAAAAAAAAAAAAAAAAAAAAAAAAAAAAAAAAAAAAAAAAAAAAAAAAAAAAAAAAAAAAAAAAAAAAAAAAAAAAAAAAAAAAAAAAAAAAAAAAAAAAAAAAAAAAAAAAAAAAAAAAAAAAAAAAAAAAAAAAAAAAAAAAAAAAAAAAAAAAAAAAAAAAAAAAAAAAAAAAAAAAAAAAAAAAAAAAAAAAAAAAAAAAAAAAAAAAAAAAAAAAAAAAAAAAAAAAAAAAAAAAAAAAAAAAAAAAAAAAAAAAAAAAAAAAAAAAAAAAAAAAAAAAAAAAAAAAAAAAAAAAAAAAAAAAAAAAAAAAAAAAAAAAAAAAAAAAAAAAAAAAAAAAAAAAAAAAAAAAAAAAAAAAAAAAAAAAAAAAAAAAAAAAAAAAAAAAAAAAAAAAAAAAAAAAAAAAAAAAAAAAAAAAAAAAAAAAAAAAAAAAAAAAAAAAAAAAAAAAAAAAAAAAAAAAAAAAAAAAAAAAAAAAAAAAAAAAAAAAAAAAAAAAAAAAAAAAAAAAAAAAAAAAAAAAAAAAAAAAAAAAAAAAAAAAAAAAAAAAAAAAAAAAAAAAAAAAAAAAAAAAAAAAAAAAAAAAAAAAAAAAAAAAAAAAAAAAAAAAAAAAAAAAAAAAAAAAAAAAAAAAAAAAAAAAAAAAAAAAAAAAAAAAAAAAAAAAAAAAAAAAAAAAAAAAAAAAAAAAAAAAAAAAAAAAAAAAAAAAAAAAAAAAAAAAAAAAAAAAAAAAAAAAAAAAAAAAAAAAAAAAAAAAAAAAAAAAAAAAAAAAAAAAAAAAAAAAAAAAAAAAAAAAAAAAAAAAAAAAAAAAAAAAAAAAAAAAAAAAAAAAAAAAAAAAAAAAAAAAAAAAAAAAAAAAAAAAAAAAAAAAAAAAAAAAAAAAAAAAAAAAAAAAAAAAAAAAAAAAAAAAAAAAAAAAAAAAAAAAAAAAAAAAAAAAAAAAAAAAAAAAAAAAAAAAAAAAAAAAAAAAAAAAAAAAAAAAAAAAAAAAAAAAAAAAAAAAAAAAAAAAAAAAAAAAAAAAAAAAAAAAAAAAAAAAAAAAAAAAAAAAAAAAAAAAAAAAAAAAAAAAAAAAAAAAAAAAAAAAAAAAAAAAAAAAAAAAAAAAAAAAAAAAAAAAAAAAAAAAAAAAAAAAAAAAAAAAAAAAAAAAAAAAAAAAAAAAAAAAAAAAAAAAAAAAAAAAAAAAAAAAAAAAAAAAAAAAAAAAAAAAAAAAAAAAAAAAAAAAAAAAAAAAAAAAAAAAAAAAAAAAAAAAAAAAAAAAAAAAAAAAAAAAAAAAAAAAAAAAAAAAAAAAAAAAAAAAAAAAAAAAAAAAAAAAAAAAAAAAAAAAAAAAAAAAAAAAAAAAAAAAAAAAAAAAAAAAAAAAAAAAAAAAAAAAAAAAAAAAAAAAAAAAAAAAAAAAAAAAAAAAAAAAAAAAAAAAAAAAAAAAAAAAAAAAAAAAAAAAAAAAAAAAAAAAAAAAAAAAAAAAAAAAAAAAAAAAAAAAAAAAAAAAAAAAAAAAAAAAAAAAAAAAAAAAAAAAAAAAAAAAAAAAAAAAAAAAAAAAAAAAAAAAAAAAAAAAAAAAAAAAAAAAAAAAAAAAAAAAAAAAAAAAAAAAAAAAAAAAAAAAAAAAAAAAAAAAAAAAAAAAAAAAAAAAAAAAAAAAAAAAAAAAAAAAAAAAAAAAAAAAAAAAAAAAAAAAAAAAAAAAAAAAAAAAAAAAAAAAAAAAAAAAAAAAAAAAAAAAAAAAAAAAAAAAAAAAAAAAAAAAAAAAAAAAAAAAAAAAAAAAAAAAAAAAAAAAAAAAAAAAAAAAAAAAAAAAAAAAAAAAAAAAAAAAAAAAAAAAAAAAAAAAAAAAAAAAAAAAAAAAAAAAAAAAAAAAAAAAAAAAAAAAAAAAAAAAAAAAAAAAAAAAAAAAAAAAAAAAAAAAAAAAAAAAAAAAAAAAAAAAAAAAAAAAAAAAAAAAAAAAAAAAAAAAAAAAAAAAAAAAAAAAAAAAAAAAAAAAAAAAAAAAAAAAAAAAAAAAAAAAAAAAAAAAAAAAAAAAAAAAAAAAAAAAAAAAAAAAAAAAAAAAAAAAAAAAAAAAAAAAAAAAAAAAAAAAAAAAAAAAAAAAAAAAAAAAAAAAAAAAAAAAAAAAAAAAAAAAAAAAAAAAAAAAAAAAAAAAAAAAAAAAAAAAAAAAAAAAAAAAAAAAAAAAAAAAAAAAAAAAAAAAAAAAAAAAAAAAAAAAAAAAAAAAAAAAAAAAAAAAAAAAAAAAAAAAAAAAAAAAAAAAAAAAAAAAAAAAAAAAAAAAAAAAAAAAAAAAAAAAAAAAAAAAAAAAAAAAAAAAAAAAAAAAAAAAAAAAAAAAAAAAAAAAAAAAAAAAAAAAAAAAAAAAAAAAAAAAAAAAAAAAAAAAAAAAAAAAAAAAAAAAAAAAAAAAAAAAAAAAAAAAAAAAAAAAAAAAAAAAAAAAAAAAAAAAAAAAAAAAAAAAAAAAAAAAAAAAAAAAAAAAAAAAAAAAAAAAAAAAAAAAAAAAAAAAAAAAAAAAAAAAAAAAAAAAAAAAAAAAAAAAAAAAAAAAAAAAAAAAAAAAAAAAAAAAAAAAAAAAAAAAAAAAAAAAAAAAAAAAAAAAAAAAAAAAAAAAAAAAAAAAAAAAAAAAAAAAAAAAAAAAAAAAAAAAAAAAAAAAAAAAAAAAAAAAAAAAAAAAAAAAAAAAAAAAAAAAAAAAAAAAAAAAAAAAAAAAAAAAAAAAAAAAAAAAAAAAAAAAAAAAAAAAAAAAAAAAAAAAAAAAAAAAAAAAAAAAAAAAAAAAAAAAAAAAAAAAAAAAAAAAAAAAAAAAAAAAAAAAAAAAAAAAAAAAAAAAAAAAAAAAAAAAAAAAAAAAAAAAAAAAAAAAAAAAAAAAAAAAAAAAAAAAAAAAAAAAAAAAAAAAAAAAAAAAAAAAAAAAAAAAAAAAAAAAAAAAAAAAAAAAAAAAAAAAAAAAAAAAAAAAAAAAAAAAAAAAAAAAAAAAAAAAAAAAAAAAAAAAAAAAAAAAAAAAAAAAAAAAAAAAAAAAAAAAAAAAAAAAAAAAAAAAAAAAAAAAAAAAAAAAAAAAAAAAAAAAAAAAAAAAAAAAAAAAAAAAAAAAAAAAAAAAAAAAAAAAAAAAAAAAAAAAAAAAAAAAAAAAAAAAAAAAAAAAAAAAAAAAAAAAAAAAAAAAAAAAAAAAAAAAAAAAAAAAAAAAAAAAAAAAAAAAAAAAAAAAAAAAAAAAAAAAAAAAAAAAAAAAAAAAAAAAAAAAAAAAAAAAAAAAAAAAAAAAAAAAAAAAAAAAAAAAAAAAAAAAAAAAAAAAAAAAAAAAAAAAAAAAAAAAAAAAAAAAAAAAAAAAAAAAAAAAAAAAAAAAAAAAAAAAAAAAAAAAAAAAAAAAAAAAAAAAAAAAAAAAAAAAAAAAAAAAAAAAAAAAAAAAAAAAAAAAAAAAAAAAAAAAAAAAAAAAAAAAAAAAAAAAAAAAAAAAAAAAAAAAAAAAAAAAAAAAAAAAAAAAAAAAAAAAAAAAAAAAAAAAAAAAAAAAAAAAAAAAAAAAAAAAAAAAAAAAAAAAAAAAAAAAAAAAAAAAAAAAAAAAAAAAAAAAAAAAAAAAAAAAAAAAAAAAAAAAAAAAAAAAAAAAAAAAAAAAAAAAAAAAAAAAAAAAAAAAAAAAAAAAAAAAAAAAAAAAAAAAAAAAAAAAAAAAAAAAAAAAAAAAAAAAAAAAAAAAAAAAAAAAAAAAAAAAAAAAAAAAAAAAAAAAAAAAAAAAAAAAAAAAAAAAAAAAAAAAAAAAAAAAAAAAAAAAAAAAAAAAAAAAAAAAAAAAAAAAAAAAAAAAAAAAAAAAAAAAAAAAAAAAAAAAAAAAAAAAAAAAAAAAAAAAAAAAAAAAAAAAAAAAAAAAAAAAAAAAAAAAAAAAAAAAAAAAAAAAAAAAAAAAAAAAAAAAAAAAAAAAAAAAAAAAAAAAAAAAAAAAAAAAAAAAAAAAAAAAAAAAAAAAAAAAAAAAAAAAAAAAAAAAAAAAAAAAAAAAAAAAAAAAAAAAAAAAAAAAAAAAAAAAAAAAAAAAAAAAAAAAAAAAAAAAAAAAAAAAAAAAAAAAAAAAAAAAPZYQJrAJOBT+ydP81X0029x4paDbw/LUA+1fEUY8foyWvTyCPjzAcnTRfIui9o2g1y7P/7p4MNEGb6hc3QeedoJTfA=</c2pa:manifest></metadata>
<title id="t">Hello, I'm Mohamed Ayman</title>
<desc id="d">Computer Engineering student who builds software. A signal waveform with one fault spike leads into a node graph.</desc>
<rect width="1280" height="320" fill="#04073F"/>
<rect x="24" y="24" width="1232" height="272" rx="44" fill="#FF9B71"/>
<text x="72" y="112" font-family="'Segoe UI', 'Helvetica Neue', Helvetica, Arial, sans-serif" font-size="60" font-weight="300" fill="#04073F">Hello, I'm Mohamed Ayman</text>
<text x="74" y="160" font-family="'Segoe UI', 'Helvetica Neue', Helvetica, Arial, sans-serif" font-size="28" fill="#04073F">a Computer Engineering student who builds software.</text>
<text x="74" y="196" font-family="'Segoe UI', 'Helvetica Neue', Helvetica, Arial, sans-serif" font-size="20" fill="#04073F" fill-opacity="0.8">Cairo University</text>
<path d="M80,252.0 L84,256.8 L88,260.9 L92,263.8 L96,265.2 L100,265.1 L104,263.9 L108,262.1 L112,260.2 L116,258.8 L120,258.1 L124,258.2 L128,258.7 L132,259.3 L136,259.3 L140,258.4 L144,256.2 L148,252.9 L152,248.8 L156,244.3 L160,240.2 L164,237.1 L168,235.6 L172,235.7 L176,237.4 L180,240.2 L184,243.5 L188,246.7 L192,249.4 L196,251.1 L200,251.9 L204,252.0 L208,252.0 L212,252.2 L216,253.1 L220,255.0 L224,257.8 L228,261.1 L232,264.4 L236,267.0 L240,268.4 L244,268.3 L248,266.4 L252,263.2 L256,259.0 L260,254.5 L264,250.4 L268,247.3 L272,245.4 L276,244.6 L280,244.8 L284,245.4 L288,245.9 L292,245.8 L296,245.0 L300,243.5 L304,241.6 L308,239.8 L312,238.8 L316,239.0 L320,240.6 L324,243.7 L328,248.0 L332,252.8 L336,257.5 L340,261.5 L344,264.1 L348,265.2 L352,265.0 L356,263.6 L360,261.7 L364,259.9 L368,258.6 L372,258.1 L376,258.2 L380,258.8 L384,259.3 L388,259.2 L392,258.1 L396,255.8 L400,252.3 L404,248.0 L408,243.5 L412,239.6 L416,236.8 L420,235.5 L424,235.9 L428,237.8 L432,240.7 L436,244.1 L440,247.2 L444,249.7 L448,251.3 L452,252.0 L456,252.0 L460,252.0 L464,252.3 L468,253.4 L472,255.4 L476,258.3 L480,261.6 L484,264.9 L488,267.3 L492,268.5 L496,268.1 L500,266.0 L504,262.5 L508,258.2 L512,254.9 L516,252.9 L520,247.0 L524,238.3 L528,238.4 L532,252.5 L536,262.4 L540,247.0 L544,222.4 L548,227.0 L552,258.9 L556,270.4 L560,242.0 L564,214.3 L568,223.7 L572,250.9 L576,259.7 L580,250.2 L584,245.8 L588,254.1 L592,263.9 L596,266.9 L600,265.5 L604,264.8 L608,263.3 L612,261.4 L616,259.7 L620,258.5 L624,258.1 L628,258.3 L632,258.9 L636,259.4 L640,259.1 L644,257.8 L648,255.3 L652,251.6 L656,247.2 L660,242.8 L664,239.0 L668,236.4 L672,235.4 L676,236.1 L680,238.2 L684,241.3 L688,244.6 L692,247.7 L696,250.1 L700,251.5 L704,252.0 L708,252.0 L712,252.0 L716,252.4 L720,253.6" fill="none" stroke="#04073F" stroke-width="3" stroke-linejoin="round"/>
<path d="M508,258.2 L512,254.9 L516,252.9 L520,247.0 L524,238.3 L528,238.4 L532,252.5 L536,262.4 L540,247.0 L544,222.4 L548,227.0 L552,258.9 L556,270.4 L560,242.0 L564,214.3 L568,223.7 L572,250.9 L576,259.7 L580,250.2 L584,245.8 L588,254.1 L592,263.9 L596,266.9 L600,265.5 L604,264.8" fill="none" stroke="#FFF1E6" stroke-width="4" stroke-linejoin="round"/>
<line x1="720" y1="252" x2="820" y2="252" stroke="#04073F" stroke-width="3"/>
<line x1="820" y1="252" x2="910" y2="196" stroke="#04073F" stroke-width="2" stroke-opacity="0.75"/><line x1="820" y1="252" x2="910" y2="270" stroke="#04073F" stroke-width="2" stroke-opacity="0.75"/><line x1="910" y1="196" x2="1000" y2="232" stroke="#04073F" stroke-width="2" stroke-opacity="0.75"/><line x1="910" y1="270" x2="1000" y2="232" stroke="#04073F" stroke-width="2" stroke-opacity="0.75"/><line x1="1000" y1="232" x2="1090" y2="196" stroke="#04073F" stroke-width="2" stroke-opacity="0.75"/><line x1="1000" y1="140" x2="1090" y2="196" stroke="#04073F" stroke-width="2" stroke-opacity="0.75"/><line x1="910" y1="196" x2="1000" y2="140" stroke="#04073F" stroke-width="2" stroke-opacity="0.75"/><line x1="1090" y1="196" x2="1180" y2="120" stroke="#04073F" stroke-width="2" stroke-opacity="0.75"/><line x1="1090" y1="196" x2="1180" y2="260" stroke="#04073F" stroke-width="2" stroke-opacity="0.75"/><circle cx="820" cy="252" r="9" fill="#FF9B71" stroke="#04073F" stroke-width="3"/><circle cx="910" cy="196" r="6.5" fill="#FF9B71" stroke="#04073F" stroke-width="3"/><circle cx="910" cy="270" r="6.5" fill="#FF9B71" stroke="#04073F" stroke-width="3"/><circle cx="1000" cy="232" r="9" fill="#FF9B71" stroke="#04073F" stroke-width="3"/><circle cx="1000" cy="140" r="6.5" fill="#FF9B71" stroke="#04073F" stroke-width="3"/><circle cx="1090" cy="196" r="9" fill="#FF9B71" stroke="#04073F" stroke-width="3"/><circle cx="1180" cy="120" r="6.5" fill="#FF9B71" stroke="#04073F" stroke-width="3"/><circle cx="1180" cy="260" r="6.5" fill="#FF9B71" stroke="#04073F" stroke-width="3"/>
</svg>